<svg xmlns="http://www.w3.org/2000/svg" xmlns:xlink="http://www.w3.org/1999/xlink" version="1.1" id="Layer_1" x="0" y="0" width="40.36" height="30.36" viewBox="0 0 40.36 30.36" enable-background="new 0 0 40.358 30.358" xml:space="preserve">
  <path fill="#728490" fill-rule="evenodd" clip-rule="evenodd" d="M40.36 26.89l-14.36-8.29c2.51-6.16 0.17-13.37-5.74-16.79C13.8-1.92 5.54 0.3 1.81 6.76c-3.73 6.47-1.52 14.73 4.94 18.46 5.82 3.37 13.1 1.88 17.2-3.18l14.4 8.31L40.36 26.89zM8.75 21.76c-4.54-2.62-6.1-8.43-3.48-12.98 2.62-4.54 8.43-6.1 12.98-3.48s6.1 8.43 3.48 12.98C19.11 22.82 13.3 24.38 8.75 21.76z"/>
</svg>

