<?xml version="1.0" ?><svg height="32" viewBox="0 0 32 32" width="32" xmlns="http://www.w3.org/2000/svg"><defs><style>.cls-1{fill:none;stroke:#000;stroke-linejoin:round;stroke-width:2px;}</style></defs><title/><g data-name="16-Whatsap" id="_16-Whatsap"><path class="cls-1" d="M16,2A13.992,13.992,0,0,0,3.619,22.525L2,29l5.233-2.093A14,14,0,1,0,16,2Z"/><path class="cls-1" d="M17.465,18.778l1.414-1.414h0a2.005,2.005,0,0,1,2.828,0l1.414,1.414a2.005,2.005,0,0,1,0,2.828h0l-1.414,1.415s-3.535,3.535-9.9-2.829-2.829-9.9-2.829-9.9l1.415-1.415h0a2.007,2.007,0,0,1,2.828,0l1.414,1.415a2.005,2.005,0,0,1,0,2.828h0l-1.414,1.414Z"/></g></svg>