<?xml version="1.0" ?><svg height="32" viewBox="0 0 32 32" width="32" xmlns="http://www.w3.org/2000/svg"><defs><style>.cls-1{fill:none;stroke:#000;stroke-linejoin:round;stroke-width:2px;}</style></defs><title/><g data-name="27-Viber" id="_27-Viber"><path class="cls-1" d="M26,1H6A5,5,0,0,0,1,6V20a5,5,0,0,0,5,5h5v6l6-6h9a5,5,0,0,0,5-5V6A5,5,0,0,0,26,1Z"/><path class="cls-1" d="M15.74,16.6l1.192-1.192h0a1.69,1.69,0,0,1,2.384,0L20.508,16.6a1.69,1.69,0,0,1,0,2.384h0l-1.192,1.192s-2.98,2.98-8.344-2.385S8.588,9.447,8.588,9.447L9.78,8.255h0a1.69,1.69,0,0,1,2.384,0l1.192,1.192a1.69,1.69,0,0,1,0,2.384h0l-1.192,1.192Z"/><path class="cls-1" d="M17,5s6.5,0,6.5,6.5"/><path class="cls-1" d="M16,8s4,0,4,4"/></g></svg>