<svg id="Слой_1" data-name="Слой 1" xmlns="http://www.w3.org/2000/svg" viewBox="0 0 40 40"><defs><style>.cls-1{fill:#a6a1a2;}</style></defs><title>Монтажная область 1 копия</title><path class="cls-1" d="M29.35,18.95a10.59,10.59,0,0,1-.5,3.1,6.1,6.1,0,0,1-1.5,2.2,3.78,3.78,0,0,1-2.3.8,2.41,2.41,0,0,1-1.5-.4,2.66,2.66,0,0,1-1-1.1h-.2a3.93,3.93,0,0,1-3.2,1.5,4.08,4.08,0,0,1-3.2-1.2,4.7,4.7,0,0,1-1.2-3.4,5.2,5.2,0,0,1,1.6-4,5.75,5.75,0,0,1,4.1-1.5,18,18,0,0,1,2.2.2,8.3,8.3,0,0,1,2,.5l-.3,5.7c0,1.1.3,1.6.9,1.6s.9-.4,1.2-1.1a7.54,7.54,0,0,0,.4-2.8,7.31,7.31,0,0,0-.8-3.3,5.19,5.19,0,0,0-2.2-2.2,6.6,6.6,0,0,0-3.2-.8,7.8,7.8,0,0,0-4.1,1,7.27,7.27,0,0,0-2.7,2.8,9.28,9.28,0,0,0-.9,4.2,6.77,6.77,0,0,0,1.7,4.9,6.86,6.86,0,0,0,5,1.7,13.9,13.9,0,0,0,2.7-.3,13.79,13.79,0,0,0,2.9-.8v2.2a14.21,14.21,0,0,1-5.5,1.1,10.08,10.08,0,0,1-6.9-2.3,8.74,8.74,0,0,1-2.5-6.6,10,10,0,0,1,1.3-5.2,9.83,9.83,0,0,1,3.6-3.7,10.17,10.17,0,0,1,5.3-1.3,10,10,0,0,1,4.6,1,7.47,7.47,0,0,1,3.1,3A9.36,9.36,0,0,1,29.35,18.95Zm-11.9,1.4c0,1.6.7,2.5,2,2.5a1.86,1.86,0,0,0,1.6-.7,4.56,4.56,0,0,0,.7-2.4l.2-2.6a5.28,5.28,0,0,0-1.3-.1,3,3,0,0,0-2.3.9A3.24,3.24,0,0,0,17.45,20.35Z"/></svg>