<?xml version="1.0" encoding="utf-8"?><svg version="1.1" id="Layer_1" xmlns="http://www.w3.org/2000/svg" xmlns:xlink="http://www.w3.org/1999/xlink" x="0px" y="0px" viewBox="0 0 37 37" style="enable-background:new 0 0 37 37;" xml:space="preserve"><style type="text/css">.st0{fill:none;}.st1{fill:#A6A1A2;}</style><rect class="st0" width="37" height="37"/><path class="st1" d="M27.2,11.1c-0.2,0.6-0.4,1.2-0.6,1.8c-0.9,2.6-1.8,5.3-2.8,7.9c-0.6,1.8-1.3,3.6-1.9,5.4c-0.2,0.6-0.6,1-1.2,1c-0.3,0-0.6-0.1-0.8-0.3c-0.3-0.3-0.6-0.6-0.8-1c-0.8-1.6-1.6-3.3-2.4-4.9c-0.2-0.3-0.4-0.6-0.7-0.7c-1.4-0.7-2.8-1.4-4.3-2.2c-0.4-0.2-0.8-0.5-1.3-0.8c-0.4-0.3-0.6-0.7-0.6-1.2c0-0.6,0.4-1,0.9-1.2c1.5-0.5,3.1-1.1,4.6-1.6c3-1.1,6.1-2.1,9.1-3.2c0.3-0.1,0.7-0.3,1.1-0.3C26.6,9.7,27.2,10.4,27.2,11.1z"/></svg>