<svg id="Слой_1" data-name="Слой 1" xmlns="http://www.w3.org/2000/svg" viewBox="0 0 40 40"><defs><style>.cls-1{fill:none;}.cls-2{fill:#a6a1a2;}</style></defs><title>Монтажная область 1 копия 5</title><rect class="cls-1" width="40" height="40"/><path class="cls-2" d="M31.68,13.84a8.38,8.38,0,0,1-2.49.65A4.24,4.24,0,0,0,31,12.22a6.39,6.39,0,0,1-2.59,1,3.93,3.93,0,0,0-3-1.3A4.13,4.13,0,0,0,21.19,16a2.11,2.11,0,0,0,.11.86,12.75,12.75,0,0,1-8.65-4.22,4.57,4.57,0,0,0-.54,2.16,4.46,4.46,0,0,0,1.84,3.46A4,4,0,0,1,12,17.73v.11a4.17,4.17,0,0,0,3.35,4.11,3.68,3.68,0,0,1-1.08.11,2.38,2.38,0,0,1-.86-.11,4.09,4.09,0,0,0,3.89,2.81,8.56,8.56,0,0,1-5.19,1.73,2.68,2.68,0,0,1-1-.11,12.89,12.89,0,0,0,6.38,1.84A11.84,11.84,0,0,0,29.62,16.54V16A9.62,9.62,0,0,0,31.68,13.84Z"/></svg>