<svg id="Слой_1" data-name="Слой 1" xmlns="http://www.w3.org/2000/svg" viewBox="0 0 40 40"><defs><style>.cls-1{fill:#a6a1a2;}</style></defs><title>Монтажная область 1</title><path id="path9-3" class="cls-1" d="M26.36,20.58a5,5,0,0,0-2.74-1.47V19a4,4,0,0,0,1.87-1.55,4.36,4.36,0,0,0,.68-2.41A4.22,4.22,0,0,0,25.67,13a3.56,3.56,0,0,0-1.48-1.43,5.93,5.93,0,0,0-2-.65,22.75,22.75,0,0,0-3.08-.15H12.61V29.24H20a12.07,12.07,0,0,0,3.17-.35,6.48,6.48,0,0,0,2.29-1.17A4.93,4.93,0,0,0,26.87,26a5.35,5.35,0,0,0,.52-2.42,4.23,4.23,0,0,0-1-3Zm-9.13-6.43h.32l1.87,0a3,3,0,0,1,1.09.22,1.38,1.38,0,0,1,.71.68,2.09,2.09,0,0,1,.23.92,2.54,2.54,0,0,1-.21,1.07,1.49,1.49,0,0,1-.77.72,2.68,2.68,0,0,1-1,.26q-.48,0-1.67,0h-.58V14.15Zm5.09,10.54a1.84,1.84,0,0,1-.92.8,3.9,3.9,0,0,1-1.41.34q-.69,0-2.51,0h-.25V21.22h.86l2,0a3.61,3.61,0,0,1,1.16.18,2.11,2.11,0,0,1,1,.73,2.26,2.26,0,0,1,.35,1.34,2.43,2.43,0,0,1-.29,1.2Z"/></svg>