<svg id="Слой_1" data-name="Слой 1" xmlns="http://www.w3.org/2000/svg" viewBox="0 0 40 40"><defs><style>.cls-1{fill:none;}.cls-2{fill:#a6a1a2;}</style></defs><title>Монтажная область 1 копия 3</title><rect class="cls-1" width="40" height="40"/><path class="cls-2" d="M28.86,20.11a2.29,2.29,0,0,0-1.95-1.84c-2.27-.22-4.54-.22-6.92-.22s-4.65,0-6.92.22a2.29,2.29,0,0,0-1.95,1.84,21.41,21.41,0,0,0-.32,4.54,21.41,21.41,0,0,0,.32,4.54A2.29,2.29,0,0,0,13.08,31c2.27.22,4.54.22,6.92.22s4.65,0,6.92-.22a2.29,2.29,0,0,0,1.95-1.84,20.91,20.91,0,0,0,.32-4.54,21.41,21.41,0,0,0-.32-4.54ZM16,21.3H14.7v7.35H13.51V21.3h-1.3V20.11h3.89V21.3Zm3.46,7.35H18.38V28a1.67,1.67,0,0,1-1.3.76.72.72,0,0,1-.76-.43,2.4,2.4,0,0,1-.11-1V22.27H17.3v5.19c0,.22.11.32.22.32s.43-.22.65-.54V22.38h1.08v6.27Zm4.22-1.95a4.45,4.45,0,0,1-.11,1.3.92.92,0,0,1-.86.76c-.43,0-.76-.22-1.19-.76v.65H20.43V20.11h1.08v2.81a1.49,1.49,0,0,1,1.19-.65.82.82,0,0,1,.86.76,3.73,3.73,0,0,1,.11,1.3Zm4.11-1.08H25.51V26.7c0,.54.22.86.54.86s.43-.11.54-.43v-.76h1.08v1a1.16,1.16,0,0,1-.22.65,1.62,1.62,0,0,1-2.59,0,2.86,2.86,0,0,1-.32-1.51V24.22a2.86,2.86,0,0,1,.32-1.51,1.62,1.62,0,0,1,2.59,0,2.86,2.86,0,0,1,.32,1.51v1.41Z"/><path class="cls-2" d="M26.16,23.24c-.32,0-.54.32-.54.86v.54H26.7v-.54c0-.65-.22-.86-.54-.86Z"/><path class="cls-2" d="M22.05,23.24c-.22,0-.32.11-.54.32v3.89c.22.22.32.32.54.32s.43-.32.43-.86v-2.7c0-.76-.11-1-.43-1Z"/><path class="cls-2" d="M22.7,17.41a1.67,1.67,0,0,0,1.3-.76v.65h1.08V10.81H24v5c-.22.32-.43.54-.76.54-.11,0-.22-.11-.22-.32V10.81H21.95v5.08a2.4,2.4,0,0,0,.11,1c0,.43.22.54.65.54Z"/><path class="cls-2" d="M14.81,13.84V17.3h1.3V13.84l1.51-5.19h-1.3L15.46,12l-.86-3.35H13.3c.22.76.54,1.62.76,2.38a18.91,18.91,0,0,1,.76,2.81Z"/><path class="cls-2" d="M19.24,17.41a1.54,1.54,0,0,0,1.3-.65,2.86,2.86,0,0,0,.32-1.51V13a2.86,2.86,0,0,0-.32-1.51,1.62,1.62,0,0,0-2.59,0A2.86,2.86,0,0,0,17.62,13v2.27a2.86,2.86,0,0,0,.32,1.51,1.54,1.54,0,0,0,1.3.65Zm-.54-4.65c0-.65.22-.86.54-.86s.54.32.54.86v2.7c0,.65-.22.86-.54.86s-.54-.32-.54-.86Z"/></svg>