<svg id="Слой_1" data-name="Слой 1" xmlns="http://www.w3.org/2000/svg" viewBox="0 0 40 40"><defs><style>.cls-1{fill:none;}.cls-2{fill:#a6a1a2;}</style></defs><title>Монтажная область 1 копия 6</title><rect class="cls-1" width="40" height="40"/><path class="cls-2" d="M20,19.35a4.84,4.84,0,0,0,4.86-4.86A4.75,4.75,0,0,0,20,9.73a4.84,4.84,0,0,0-4.86,4.86A4.75,4.75,0,0,0,20,19.35Zm0-7.24a2.38,2.38,0,1,1-2.38,2.38A2.47,2.47,0,0,1,20,12.11Zm5.95,8.65c-.22-.65-1.08-1.08-2.16-.22A6.76,6.76,0,0,1,20,21.73a7,7,0,0,1-3.78-1.19c-1.08-.86-1.84-.32-2.16.22-.43,1.08.11,1.62,1.3,2.38A8.35,8.35,0,0,0,19,24.22l-.86.86c-1.08,1.19-2.27,2.27-3,3a1.31,1.31,0,0,0,0,1.73l.11.11a1.31,1.31,0,0,0,1.73,0l3-3c1.08,1.19,2.27,2.27,3,3a1.31,1.31,0,0,0,1.73,0l.11-.11a1.31,1.31,0,0,0,0-1.73l-3-3-.76-.86a7.54,7.54,0,0,0,3.46-1.08C25.94,22.27,26.37,21.84,25.94,20.76Z"/></svg>